<svg width="54" height="54" viewBox="0 0 54 54" fill="none" xmlns="http://www.w3.org/2000/svg">
<path d="M27 54C12.0706 54 0 41.9294 0 27C0 12.0706 12.0706 0 27 0C41.9294 0 54 12.0706 54 27C54 41.9294 41.9294 54 27 54ZM27 3.17647C13.8176 3.17647 3.17647 13.8176 3.17647 27C3.17647 40.1824 13.8176 50.8235 27 50.8235C40.1824 50.8235 50.8235 40.1824 50.8235 27C50.8235 13.8176 40.1824 3.17647 27 3.17647Z" fill="#3363B7"/>
<path d="M26.2613 35L25 33.8454L32.4775 27L25 20.1546L26.2613 19L35 27L26.2613 35Z" fill="#3363B7"/>
<path d="M19 26H33V28H19V26Z" fill="#3363B7"/>
</svg>
