<svg width="57" height="51" viewBox="0 0 57 51" fill="none" xmlns="http://www.w3.org/2000/svg">
<path d="M34.2722 21.6629C35.726 22.9039 37.9199 22.7577 39.1254 21.3217C39.9808 20.2978 40.2024 19.0391 39.9675 17.8336C39.4224 15.0325 36.4972 12.6435 33.829 14.7488C32.588 15.7283 32.3531 17.2441 32.5437 18.7377C32.69 19.8812 33.4124 20.9228 34.2722 21.6629ZM42.5072 19.961C45.295 20.8253 46.2656 16.4906 44.4617 14.9615C43.9299 14.5139 43.4202 14.3854 42.9592 14.4696C41.4922 14.7488 40.5349 17.2308 41.1598 18.6712C41.4169 19.274 41.8778 19.7704 42.5072 19.961ZM50.4053 17.2219C49.6784 16.0075 48.105 16.1848 47.1698 16.9604C45.9997 17.9266 45.8889 20.0452 46.9216 21.1001C48.987 23.2098 51.5665 19.1632 50.4053 17.2219ZM52.7809 20.2181C51.8501 20.1737 51.0213 20.9449 50.5161 21.6319C50.0462 22.2657 49.705 23.0458 50.0285 23.7948C50.1748 24.1272 50.3565 24.2912 50.6933 24.4197C53.6673 25.5544 55.8612 20.3688 52.7809 20.2181ZM53.5964 25.1688C52.8651 25.6652 51.9299 26.5516 52.0717 27.5178C52.1958 28.3644 53.2019 28.8164 53.9776 28.6835C55.223 28.4619 56.1759 27.8369 56.1626 26.4718C56.1449 25.089 54.7133 24.4109 53.5964 25.1688ZM38.7576 23.1787C35.2251 25.0979 33.8911 29.53 34.9282 33.2619C35.2695 34.4807 35.593 35.7971 34.844 36.9361C34.2058 37.9068 33.0711 38.5184 32.1492 39.1744C30.8417 40.1007 29.224 40.7788 28.2046 42.0508C26.8661 43.7173 26.4982 46.6425 27.5132 48.4996C28.0362 49.4525 29.4899 50.3788 30.4872 50.7201C31.7104 51.1367 33.0445 51.0392 34.2855 50.7467C37.1044 50.0819 39.3958 48.2425 41.4612 46.3057C43.6241 44.2758 45.7249 42.0774 47.4313 39.6397C50.3565 35.4602 52.5283 29.7295 48.9382 25.2308C46.8861 22.6646 41.5543 21.6585 38.7576 23.1787ZM27.8013 3.75707C27.2739 2.95485 26.4495 2.36094 25.5365 2.05956C24.291 1.64293 22.886 1.7759 21.8534 2.67119C20.927 3.47341 19.9874 5.23741 19.8988 6.47841C19.8057 7.81248 20.1381 9.3593 21.1797 10.259C21.6229 10.6446 22.1902 10.8662 22.7353 10.8795C22.9437 10.915 23.1564 10.9327 23.3736 10.915C24.6545 10.7953 25.8512 10.1039 26.8041 9.27509C28.2578 8.02079 28.865 5.36594 27.8013 3.75707ZM17.4301 6.13713C19.1675 5.39696 20.0184 2.85291 19.3448 1.2795C18.9858 0.441821 18.1968 -0.11663 16.8805 0.0207668C13.4411 0.370907 13.5209 7.80362 17.4301 6.13713Z" fill="#CA181C"/>
<path d="M9.48147 5.62726C12.9607 8.55691 14.9773 1.22171 11.3917 0.144694C10.0045 -0.27636 8.64823 0.698713 8.32468 2.29872C8.06761 3.54858 8.51526 4.81618 9.48147 5.62726ZM7.49587 7.71037C8.72357 6.54472 8.19172 4.4749 6.96401 3.46437C6.33908 2.94581 5.53243 2.70648 4.69032 2.999C4.40223 3.0965 4.11414 3.45551 3.93685 3.69484C2.47868 5.67602 5.43049 9.66495 7.49587 7.71037ZM0.581716 7.49763C-1.45264 9.4788 2.34128 13.6096 4.40223 11.4688C5.33741 10.4938 4.81442 8.91148 3.95458 8.1137C3.17009 7.38682 1.49474 6.60677 0.581716 7.49763ZM21.5635 29.1974C19.8217 26.9946 19.3563 24.5525 20.3402 21.9065C20.9563 20.2445 21.9668 18.8218 22.2017 17.0267C22.7513 12.8384 19.5735 8.79182 15.3674 8.40622C14.1308 8.29098 12.5928 8.31758 11.3917 8.65442C9.47704 9.19514 7.27869 10.3386 6.1352 12.0096C4.48201 14.4251 4.84101 17.6384 5.30639 20.3597C5.7629 23.0456 6.3568 25.6916 7.38063 28.2224C8.94075 32.0606 10.8023 36.3952 13.692 39.4401C14.4322 40.2202 15.2832 40.9116 16.2405 41.408C17.876 42.2545 19.7818 42.6667 21.5812 42.126C21.8649 42.0418 22.1441 41.931 22.4145 41.8025C24.143 40.9648 25.7608 39.2717 26.0311 37.3304C26.266 35.6595 25.6278 34.2235 24.7015 32.9204C23.7574 31.5864 22.5031 30.3852 21.5635 29.1974Z" fill="#CA181C"/>
</svg>
